<svg data-v-fde0c5aa="" xmlns="http://www.w3.org/2000/svg" viewBox="0 0 300 300" class="iconAbove"><!----><defs data-v-fde0c5aa=""><linearGradient data-v-fde0c5aa="" gradientTransform="rotate(25)" id="c0dcc9e4-6e87-4a3e-8ada-2604634d2577" x1="0%" y1="0%" x2="100%" y2="0%"><stop data-v-fde0c5aa="" offset="0%" stop-color="#462AB9" stop-opacity="1"></stop><stop data-v-fde0c5aa="" offset="100%" stop-color="#737048" stop-opacity="1"></stop></linearGradient></defs><rect data-v-fde0c5aa="" fill="url(#c0dcc9e4-6e87-4a3e-8ada-2604634d2577)" x="0" y="0" width="300px" height="300px" class="logo-background-square"></rect><defs data-v-fde0c5aa=""><!----></defs><g data-v-fde0c5aa="" id="24d4615b-575b-4be2-ae82-0a3c11c58ddd" fill="#ffffff" transform="matrix(2.502406123018588,0,0,2.502406123018588,19.149181909224378,172.15014386622022)"><path d="M1.26 3.58L1.26 3.58Q1.92 3.58 2.33 3.94Q2.74 4.30 3.01 5.18Q3.28 6.06 3.60 9.39Q3.92 12.73 4.30 13.99L4.30 13.99Q4.65 13.15 5.73 11.01Q6.80 8.88 7.49 7.25Q8.18 5.63 8.18 4.77L8.18 4.77Q8.18 4.37 8.01 4.09L8.01 4.09Q8.34 3.58 8.97 3.58Q9.60 3.58 9.60 4.27Q9.60 4.96 8.92 6.54Q8.23 8.12 7.42 9.71Q6.61 11.30 5.92 12.97Q5.24 14.64 5.24 15.47L5.24 15.47Q5.24 15.61 5.26 15.81L5.26 15.81Q5.04 16.13 4.37 16.13Q3.70 16.13 3.37 15.86Q3.05 15.58 2.81 14.81Q2.58 14.03 2.26 10.65Q1.95 7.28 1.54 5.88L1.54 5.88Q1.25 4.84 0.34 4.09L0.34 4.09Q0.46 3.85 0.74 3.72Q1.02 3.58 1.26 3.58ZM12.78 4.26L12.78 4.26Q12.78 4.61 12.63 5.11L12.63 5.11Q12.11 5.43 11.68 5.43Q11.26 5.43 11.08 5.28Q10.91 5.12 10.91 4.84Q10.91 4.56 11.00 3.98L11.00 3.98Q11.52 3.65 11.97 3.65L11.97 3.65Q12.78 3.65 12.78 4.26ZM11.45 16.13L11.45 16.13Q10.36 16.13 10.36 14.28L10.36 14.28Q10.36 13.51 10.65 11.68Q10.95 9.84 10.95 8.67Q10.95 7.49 10.65 6.93L10.65 6.93Q11.00 6.61 11.51 6.61L11.51 6.61Q12.53 6.61 12.53 7.67L12.53 7.67Q12.53 8.01 12.21 10.30Q11.89 12.59 11.89 13.82Q11.89 15.05 12.42 15.62L12.42 15.62Q11.98 16.13 11.45 16.13ZM16.10 16.13L16.10 16.13Q15.01 16.13 15.01 14.28L15.01 14.28Q15.01 13.51 15.30 11.68Q15.60 9.84 15.60 8.67Q15.60 7.49 15.30 6.93L15.30 6.93Q15.65 6.61 16.16 6.61L16.16 6.61Q17.18 6.61 17.18 7.67L17.18 7.67Q17.18 8.05 17.00 9.23Q16.83 10.40 16.77 10.84L16.77 10.84Q17.53 8.85 18.47 7.65Q19.42 6.45 20.03 6.45L20.03 6.45Q20.38 6.45 20.56 6.79Q20.73 7.13 20.73 7.48Q20.73 7.83 20.65 8.19L20.65 8.19Q20.44 8.15 20.26 8.15L20.26 8.15Q19.36 8.15 18.46 9.20Q17.56 10.25 17.04 11.51Q16.53 12.77 16.53 13.59L16.53 13.59Q16.53 15.05 17.07 15.62L17.07 15.62Q16.63 16.13 16.10 16.13ZM23.60 12.10L23.60 12.10Q23.23 12.10 22.85 12.05L22.85 12.05Q22.86 13.61 23.43 14.42Q24.00 15.23 25.02 15.23L25.02 15.23Q26.46 15.23 27.12 13.82L27.12 13.82Q27.45 14.14 27.45 14.60L27.45 14.60Q27.45 15.39 26.58 15.83Q25.70 16.27 24.75 16.27L24.75 16.27Q23.06 16.27 22.20 15.19Q21.34 14.11 21.34 12.40L21.34 12.40Q21.34 11.38 21.66 10.34Q21.98 9.30 22.54 8.42Q23.10 7.55 23.98 7.00Q24.86 6.45 25.91 6.45Q26.96 6.45 27.52 6.99Q28.07 7.52 28.07 8.36L28.07 8.36Q28.07 9.72 26.82 10.91Q25.56 12.10 23.60 12.10ZM26.60 8.82Q26.60 8.25 26.24 7.88Q25.89 7.50 25.26 7.50Q24.64 7.50 24.19 7.85Q23.73 8.20 23.46 8.79L23.46 8.79Q22.99 9.88 22.88 11.16L22.88 11.16Q23.21 11.20 23.51 11.20L23.51 11.20Q24.93 11.20 25.77 10.46Q26.60 9.73 26.60 8.82L26.60 8.82ZM32.52 4.35Q32.52 5.12 31.98 8.71Q31.44 12.29 31.44 13.67Q31.44 15.05 31.98 15.62L31.98 15.62Q31.54 16.13 31.01 16.13L31.01 16.13Q29.92 16.13 29.92 14.28L29.92 14.28Q29.92 13.59 30.41 10.19Q30.91 6.79 30.91 5.30Q30.91 3.81 30.62 3.22L30.62 3.22Q30.77 3.09 31.06 3.00Q31.35 2.91 31.56 2.91L31.56 2.91Q32.05 2.91 32.28 3.25Q32.52 3.58 32.52 4.35ZM37.17 4.35Q37.17 5.12 36.63 8.71Q36.09 12.29 36.09 13.67Q36.09 15.05 36.62 15.62L36.62 15.62Q36.19 16.13 35.66 16.13L35.66 16.13Q34.57 16.13 34.57 14.28L34.57 14.28Q34.57 13.59 35.06 10.19Q35.56 6.79 35.56 5.30Q35.56 3.81 35.27 3.22L35.27 3.22Q35.42 3.09 35.71 3.00Q35.99 2.91 36.20 2.91L36.20 2.91Q36.69 2.91 36.93 3.25Q37.17 3.58 37.17 4.35ZM41.06 12.10L41.06 12.10Q40.68 12.10 40.31 12.05L40.31 12.05Q40.32 13.61 40.89 14.42Q41.45 15.23 42.48 15.23L42.48 15.23Q43.92 15.23 44.58 13.82L44.58 13.82Q44.91 14.14 44.91 14.60L44.91 14.60Q44.91 15.39 44.04 15.83Q43.16 16.27 42.21 16.27L42.21 16.27Q40.52 16.27 39.66 15.19Q38.79 14.11 38.79 12.40L38.79 12.40Q38.79 11.38 39.12 10.34Q39.44 9.30 40.00 8.42Q40.56 7.55 41.44 7.00Q42.32 6.45 43.37 6.45Q44.42 6.45 44.98 6.99Q45.53 7.52 45.53 8.36L45.53 8.36Q45.53 9.72 44.27 10.91Q43.02 12.10 41.06 12.10ZM44.06 8.82Q44.06 8.25 43.70 7.88Q43.34 7.50 42.72 7.50Q42.10 7.50 41.64 7.85Q41.19 8.20 40.92 8.79L40.92 8.79Q40.45 9.88 40.33 11.16L40.33 11.16Q40.67 11.20 40.96 11.20L40.96 11.20Q42.39 11.20 43.23 10.46Q44.06 9.73 44.06 8.82L44.06 8.82ZM49.01 16.23L49.01 16.23Q48.06 16.23 47.51 15.29Q46.96 14.35 46.96 12.71L46.96 12.71Q46.96 10.08 48.14 8.27Q49.32 6.45 51.06 6.45L51.06 6.45Q52.25 6.45 53.03 7.39L53.03 7.39Q53.14 6.96 53.32 6.78Q53.49 6.59 53.86 6.59Q54.24 6.59 54.56 6.96L54.56 6.96Q54.31 7.63 54.12 9.21Q53.94 10.79 53.94 12.16Q53.94 13.52 54.09 14.27Q54.24 15.02 54.59 15.61L54.59 15.61Q54.18 16.13 53.63 16.13L53.63 16.13Q52.43 16.13 52.43 13.17L52.43 13.17Q52.43 12.70 52.54 11.51L52.54 11.51Q51.81 13.54 50.81 14.88Q49.81 16.23 49.01 16.23ZM51.11 7.42L51.11 7.42Q49.92 7.42 49.17 8.81Q48.43 10.19 48.43 12.36L48.43 12.36Q48.43 13.47 48.71 14.11Q49 14.74 49.50 14.74Q49.99 14.74 50.76 13.65Q51.52 12.56 52.15 10.98Q52.78 9.41 52.92 8.15L52.92 8.15Q51.97 7.42 51.11 7.42ZM64.15 5.07L64.15 5.07Q64.15 7.97 63.73 11.10L63.73 11.10Q63.32 14.27 62.16 16.73L62.16 16.73Q61.61 17.89 60.80 18.56Q59.99 19.24 59.00 19.24L59.00 19.24Q58.34 19.24 57.83 18.91Q57.32 18.59 57.32 17.91Q57.32 17.22 57.82 16.74L57.82 16.74Q58.06 17.43 58.39 17.77Q58.73 18.12 59.37 18.12Q60.02 18.12 60.53 17.50Q61.04 16.88 61.38 15.82Q61.71 14.76 61.95 13.50Q62.19 12.25 62.31 10.79L62.31 10.79Q62.55 8.06 62.55 5.80L62.55 5.80Q62.55 4.49 62.26 3.91L62.26 3.91Q62.40 3.78 62.69 3.68Q62.97 3.58 63.20 3.58L63.20 3.58Q63.67 3.58 63.91 3.93Q64.15 4.27 64.15 5.07ZM68.21 12.10L68.21 12.10Q67.83 12.10 67.45 12.05L67.45 12.05Q67.47 13.61 68.03 14.42Q68.60 15.23 69.62 15.23L69.62 15.23Q71.06 15.23 71.72 13.82L71.72 13.82Q72.06 14.14 72.06 14.60L72.06 14.60Q72.06 15.39 71.18 15.83Q70.31 16.27 69.36 16.27L69.36 16.27Q67.66 16.27 66.80 15.19Q65.94 14.11 65.94 12.40L65.94 12.40Q65.94 11.38 66.26 10.34Q66.58 9.30 67.14 8.42Q67.70 7.55 68.59 7.00Q69.47 6.45 70.52 6.45Q71.57 6.45 72.12 6.99Q72.67 7.52 72.67 8.36L72.67 8.36Q72.67 9.72 71.42 10.91Q70.17 12.10 68.21 12.10ZM71.20 8.82Q71.20 8.25 70.85 7.88Q70.49 7.50 69.87 7.50Q69.24 7.50 68.79 7.85Q68.33 8.20 68.07 8.79L68.07 8.79Q67.59 9.88 67.48 11.16L67.48 11.16Q67.82 11.20 68.11 11.20L68.11 11.20Q69.54 11.20 70.37 10.46Q71.20 9.73 71.20 8.82L71.20 8.82ZM77.50 15.82L77.50 15.82L77.52 16.00Q77.06 16.17 76.73 16.17L76.73 16.17Q76.16 16.17 76.02 15.57L76.02 15.57Q74.87 10.68 74.23 9.23L74.23 9.23Q73.75 8.12 73.47 7.85Q73.18 7.57 72.97 7.57L72.97 7.57Q73.12 7.10 73.46 6.87Q73.79 6.65 74.12 6.65L74.12 6.65Q74.97 6.65 75.54 8.09L75.54 8.09Q75.80 8.76 76.43 11.47Q77.07 14.18 77.10 14.64L77.10 14.64Q78.44 11.21 78.74 9.51L78.74 9.51Q78.33 8.48 77.90 8.26L77.90 8.26Q78.05 7.97 78.37 7.77Q78.68 7.57 79.02 7.57L79.02 7.57Q79.66 7.57 79.93 8.22L79.93 8.22Q80.18 8.89 80.78 11.54Q81.38 14.18 81.41 14.64L81.41 14.64Q82.14 12.98 82.64 10.92Q83.15 8.86 83.15 7.88L83.15 7.88Q83.15 7.48 82.98 7.21L82.98 7.21Q83.31 6.69 83.99 6.69L83.99 6.69Q84.62 6.69 84.62 7.45Q84.62 8.20 83.81 10.76Q83.01 13.31 82.05 15.16L82.05 15.16Q81.82 15.62 81.82 15.78Q81.82 15.93 81.83 16.00L81.83 16.00Q81.34 16.17 81.05 16.17L81.05 16.17Q80.47 16.17 80.32 15.57L80.32 15.57Q79.53 12.31 79.28 11.34L79.28 11.34Q78.55 13.59 77.74 15.16L77.74 15.16Q77.52 15.62 77.50 15.82ZM88.14 12.10L88.14 12.10Q87.77 12.10 87.39 12.05L87.39 12.05Q87.40 13.61 87.97 14.42Q88.54 15.23 89.56 15.23L89.56 15.23Q91.00 15.23 91.66 13.82L91.66 13.82Q91.99 14.14 91.99 14.60L91.99 14.60Q91.99 15.39 91.12 15.83Q90.24 16.27 89.29 16.27L89.29 16.27Q87.60 16.27 86.74 15.19Q85.88 14.11 85.88 12.40L85.88 12.40Q85.88 11.38 86.20 10.34Q86.52 9.30 87.08 8.42Q87.64 7.55 88.52 7.00Q89.40 6.45 90.45 6.45Q91.50 6.45 92.06 6.99Q92.61 7.52 92.61 8.36L92.61 8.36Q92.61 9.72 91.36 10.91Q90.10 12.10 88.14 12.10ZM91.14 8.82Q91.14 8.25 90.78 7.88Q90.43 7.50 89.80 7.50Q89.18 7.50 88.73 7.85Q88.27 8.20 88.00 8.79L88.00 8.79Q87.53 9.88 87.42 11.16L87.42 11.16Q87.75 11.20 88.05 11.20L88.05 11.20Q89.47 11.20 90.31 10.46Q91.14 9.73 91.14 8.82L91.14 8.82ZM97.06 4.35Q97.06 5.12 96.52 8.71Q95.98 12.29 95.98 13.67Q95.98 15.05 96.52 15.62L96.52 15.62Q96.08 16.13 95.55 16.13L95.55 16.13Q94.46 16.13 94.46 14.28L94.46 14.28Q94.46 13.59 94.96 10.19Q95.45 6.79 95.45 5.30Q95.45 3.81 95.16 3.22L95.16 3.22Q95.31 3.09 95.60 3.00Q95.89 2.91 96.10 2.91L96.10 2.91Q96.59 2.91 96.82 3.25Q97.06 3.58 97.06 4.35ZM101.70 7.43L101.70 7.43Q101.11 7.43 100.76 7.74Q100.41 8.04 100.41 8.55Q100.41 9.07 100.75 9.46Q101.09 9.86 101.92 10.53Q102.75 11.20 102.94 11.37L102.94 11.37Q104.06 12.29 104.06 13.52Q104.06 14.76 103.25 15.48Q102.44 16.21 100.94 16.21L100.94 16.21Q99.82 16.21 99.07 15.79Q98.32 15.36 98.32 14.55L98.32 14.55Q98.32 13.97 98.99 13.30L98.99 13.30Q99.23 14.31 99.86 14.81Q100.48 15.30 101.16 15.30Q101.84 15.30 102.28 14.97Q102.72 14.63 102.72 14.08L102.72 14.08Q102.72 13.61 102.54 13.34Q102.37 13.06 102.27 12.93Q102.17 12.80 101.89 12.55Q101.61 12.31 101.47 12.19Q101.32 12.07 100.90 11.74Q100.48 11.41 100.27 11.24L100.27 11.24Q99.11 10.33 99.11 9.06Q99.11 7.78 99.97 7.12Q100.84 6.45 102.35 6.45L102.35 6.45Q104.24 6.45 104.24 7.76L104.24 7.76Q104.24 8.37 103.60 8.88L103.60 8.88Q103.01 7.43 101.70 7.43Z"></path></g><defs data-v-fde0c5aa=""><!----></defs><g data-v-fde0c5aa="" id="52b9f2bd-9af9-4070-aa71-7cf2f2eb9c74" stroke="none" fill="#ffffff" transform="matrix(0.9104118279439395,0,0,0.9104118279439395,103.341848773735,74.94302050784054)"><path d="M47.715 79.529c-7.717 0-14.555-3.721-18.861-9.444 3.119 9.39 11.962 16.17 22.402 16.17 13.043 0 23.615-10.573 23.615-23.625 0-5.321-1.783-10.218-4.754-14.17a23.613 23.613 0 011.219 7.451c0 13.042-10.578 23.618-23.621 23.618zm16.392-46.603c-4.285.837-7.764 1.695-10.644 2.745 13.916 1.151 24.84 12.757 24.864 26.958-.027 14.962-12.122 27.05-27.076 27.078-14.957-.028-27.055-12.116-27.08-27.078.011-7.513 3.077-14.299 8.014-19.2a16.362 16.362 0 00-3.433-4.043c-6.081 5.883-9.872 14.115-9.876 23.243C18.882 80.506 33.374 95 51.252 95c17.877 0 32.366-14.494 32.371-32.371-.005-13.307-8.038-24.728-19.516-29.703zm5.817-7.521c-6.291-8.997-6.291-11.182 0-20.176-8.995 6.292-11.181 6.292-20.172 0 6.293 8.994 6.293 11.18 0 20.176 8.991-6.294 11.177-6.294 20.172 0zM37.74 47.391c2.035-11.473 3.677-13.124 15.159-15.157-11.486-2.022-13.13-3.665-15.159-15.148-2.027 11.484-3.67 13.126-15.153 15.154 11.483 2.025 13.126 3.671 15.153 15.151z"></path></g><!----></svg>