<svg xmlns="http://www.w3.org/2000/svg" version="1.1" xmlns:xlink="http://www.w3.org/1999/xlink" viewBox="0 0 18.49127556521567 4.124940360137545"><g transform="matrix(0.6863889753535631,0,0,0.6863889753535631,3.5463473249875426,1.6959384672299698)"><rect width="20.37596022566177" height="20.37596022566177" x="-1.8846846604461014" y="-9.653980112830885" fill="#b9625d"></rect><g transform="matrix(1,0,0,1,0,0)" clip-path="url(#SvgjsClipPath110124)"><g clip-path="url(#SvgjsClipPath1101196325cf0f-adb0-4020-929f-52f0bda7b9b7)"><path d=" M 16.06712933137066 0.31433492773204086 C 16.064306084432946 0.3124802725387339 16.0612534259281 0.31100101070819086 16.058048294873693 0.3099344254647898 C 15.82994501038117 0.20364618424121794 15.55972410998291 0.25133258870004294 15.38177987908643 0.42927681959651887 C 15.203835648189957 0.6072210504929947 15.15614924373113 0.8774419508912568 15.262437484954704 1.1055452353837796 C 15.263504070198104 1.1087503664381848 15.264983332028647 1.1118030249430326 15.266837987221955 1.114626271880743 C 15.380836650343738 1.3518174165283903 15.636183954339769 1.4869413849796007 15.896418844270514 1.4477860998248737 C 16.156653734201257 1.4086308146701472 16.360933851329733 1.2043506975416738 16.40008913648446 0.9441158076109295 C 16.439244421639184 0.6838809176801846 16.304120453187977 0.4285336136841531 16.066929308540328 0.31453495056237035 Z M 15.806499583451197 1.3741758965164232 C 15.519278730547727 1.3741758965164232 15.286440224594257 1.1413373905629505 15.286440224594257 0.854116537659481 C 15.286440224594257 0.5668956847560118 15.519278730547727 0.3340571788025387 15.806499583451197 0.3340571788025387 C 16.093720436354666 0.3340571788025387 16.32655894230814 0.5668956847560118 16.32655894230814 0.854116537659481 C 16.32620627035569 1.1411911821587304 16.093574227950516 1.373823224563935 15.806499583451231 1.3741758965164232 Z M 16.372284161321485 0.2883719643552596 L 16.255430823842936 0.17147862231064537 C 16.254495484186712 0.1703149756334874 16.253493701126303 0.1692063357132989 16.252430481387997 0.16815824332717422 C 16.183956984351706 0.09996807370886196 16.10374343552171 0.04468997509802264 16.015643454843822 0.004979618344292058 C 15.975915698353752 -0.08317575304821223 15.92059517986474 -0.16343251700997663 15.852344816162743 -0.23192742189807802 C 15.851184683746832 -0.23308755431398986 15.849864533066656 -0.23408766846563778 15.84866439608468 -0.23524780088154945 L 15.735371464985999 -0.34858073654629695 C 15.734422717949966 -0.34975774808190163 15.733407621010535 -0.35087969733074775 15.732331117964987 -0.351941120095834 C 15.419391553189975 -0.6610959990664865 14.915608085431423 -0.6597549713227218 14.604318830565184 -0.34893844956470094 C 14.293029575698945 -0.038121927806680334 14.290922908045443 0.46565892007624665 14.599601829808506 0.7790679717198217 C 14.600361916563754 0.7799080676072019 14.601202012451138 0.7807481634945863 14.602002103772456 0.7814682456837727 L 14.720615642157904 0.9000817840692217 C 14.789139599330898 0.9682765231082378 14.869390751984596 1.0235660710358112 14.957522682400274 1.0633004136181692 C 14.996742043232707 1.1509064985408368 15.051543872381352 1.2306626110094565 15.119261143004785 1.2986872803500347 C 15.11998122519397 1.2994473671052873 15.120741311949223 1.3002474584266055 15.121541403270543 1.3009675406157921 L 15.121541403270543 1.3009675406157921 L 15.241555101468299 1.4207012068510865 C 15.554261282504804 1.7329213134060193 16.06086413299233 1.732527275958679 16.373084244206947 1.4198210995746143 C 16.685304355421565 1.1071149231905493 16.684910325523195 0.6005120726971556 16.37220415379157 0.2882919568228527 Z M 14.446344337209965 0.21404348060478284 C 14.44647692994984 -0.026818559841209733 14.566947731022582 -0.25168644404130225 14.767399122928673 -0.38522961905085634 C 14.967850514834765 -0.5187727940604103 15.22177129680293 -0.543329172873462 15.444098219459887 -0.45067238914658525 C 15.208969114496488 -0.49751400749314245 14.965219559859552 -0.4365989024507627 14.77976966579543 -0.2846509837355107 C 14.594319771731305 -0.1327030650202588 14.486660421864677 0.09430785937397357 14.486348903275882 0.3340571788025387 C 14.486522591032204 0.3878091702348553 14.49203020516721 0.44141125427380246 14.502790779928985 0.49407544306626083 C 14.465446398950231 0.40544285096575594 14.44625262026915 0.3102221204430261 14.446344337209966 0.21404348060478307 Z M 14.77710208944298 0.8434353185198809 C 14.758190899480226 0.8244955522780757 14.740411433097952 0.8044585879103732 14.723856012009241 0.7834284694210023 C 14.723082858647775 0.7824488880844249 14.722254767802882 0.7815139468079373 14.721375728913154 0.7806281497963887 C 14.620360232159966 0.6537655045659034 14.565672715376257 0.4962231175061509 14.56635803540772 0.3340571788025385 C 14.566329876911189 0.04369018101324573 14.74070313429273 -0.21828286200312347 15.008582132898285 -0.3303267654699553 C 15.27646113150384 -0.4423706689367872 15.585424799332218 -0.3825596321698047 15.79213794423362 -0.17864133989819153 L 15.795658346047336 -0.17512093808447382 C 15.795898373443729 -0.17488091068807832 15.796258414538324 -0.17480090155594652 15.79649844193472 -0.17456087415955096 C 15.837719738918054 -0.13291925696871137 15.873697196744276 -0.08639575567961016 15.90363066985925 -0.036025061873275366 C 15.869733936767584 -0.045427142637962215 15.835255627252657 -0.05259007825811812 15.80041888940918 -0.057467509284606755 L 15.73917189876226 -0.11867449536546254 L 15.73917189876226 -0.11867449536546254 C 15.48913509935391 -0.3687002478179321 15.083754305161762 -0.36869129249078003 14.83372855270929 -0.1186544930824292 C 14.583702800256821 0.1313823063259214 14.583711755583973 0.53676310051807 14.833748554992322 0.7867888529705398 L 14.833748554992322 0.7867888529705398 L 14.894995545639244 0.8480758481835275 C 14.899836145556819 0.8829026126905757 14.906986049667777 0.9173691597974132 14.91639798848451 0.9512476240675289 C 14.86573046120771 0.92111245179134 14.81894939682687 0.8848779513217464 14.777102089442977 0.8433553093877488 Z M 14.886794609595729 0.7261019262485413 C 14.668064885282176 0.5073721976783458 14.668064888732868 0.15274124245690202 14.886794617303064 -0.06598848185664774 C 15.10552434587326 -0.28471820617019766 15.460155301094703 -0.28471820271950465 15.678885025408254 -0.0659884741493092 C 15.243349920983572 -0.06137719691364496 14.891405894538728 0.2905668295311985 14.886794609595725 0.7261019262485415 Z M 15.022090052030665 1.012854655809046 C 14.99683499736521 0.9523266573808105 14.980009334358886 0.8886179669736651 14.972084344448266 0.8235130446190531 C 14.968275787178095 0.7938622617317952 14.966378320804642 0.7639972100087624 14.966403696066907 0.7341028394617248 C 14.966866634644056 0.3366043411003611 15.288987386892064 0.01448358885234624 15.686485885253434 0.014020650275189506 C 15.716566483969025 0.013991874401102833 15.746618058570721 0.015889305967772827 15.776456154335694 0.019701298656550015 C 15.841255648715807 0.027713398475785245 15.90466013025704 0.04452345949149328 15.964917665072237 0.06966700167288287 C 15.701935643137034 0.016751039640961585 15.429928768588017 0.09905744357916879 15.240402215985439 0.288897715274805 C 15.050875663382858 0.47873798697044134 14.969019246312337 0.7508806166989361 15.022370083993131 1.0137747608285625 Z M 15.806499583451197 1.5741987268460165 C 15.408809171738703 1.5741987268460165 15.086417394264663 1.251806949371977 15.086417394264663 0.854116537659481 C 15.086417394264663 0.4564261259469853 15.408809171738703 0.1340343484729457 15.806499583451197 0.13403434847294549 C 16.204189995163695 0.13403434847294549 16.526581772637734 0.45642612594698506 16.526581772637734 0.8541165376594808 C 16.527566988550596 1.0453945364737574 16.452017819469845 1.2291232453441225 16.316762055302853 1.3643790095111181 C 16.181506291135864 1.4996347736781133 15.997777582265503 1.5751839427588712 15.80649958345121 1.5741987268460165 Z M 15.353967932113525 0.8901206471188077 L 15.363489018837214 0.9695697153257221 C 15.651947120579353 0.9347453183089138 15.880701352478658 0.709884985207291 15.920472592173 0.4220672241475598 L 15.841263551362479 0.4111059730454979 C 15.806466003663637 0.6629142469949167 15.606335585809191 0.8596437128342682 15.353967932113527 0.8901206471188077 Z" fill="#ffffff" transform="matrix(1,0,0,1,0,0)" fill-rule="nonzero"></path></g></g><g><path d=" M 0.045 0.018000000000000016 L 0.4845 1.068 L 0.5745 1.068 L 1.0005 0.018000000000000016 L 0.9225 0.018000000000000016 L 0.5730000000000001 0.8820000000000001 L 0.5670000000000001 0.8820000000000001 L 0.20700000000000002 0.018000000000000016 L 0.045 0.018000000000000016 M 1.2840322265625 0.018000000000000016 L 1.2840322265625 1.068 L 1.4205322265625 1.068 L 1.4205322265625 0.018000000000000016 L 1.2840322265625 0.018000000000000016 M 1.8390483398437498 0.018000000000000016 L 1.8390483398437498 1.068 L 1.97554833984375 1.068 L 1.97554833984375 0.6045 L 2.0415483398437497 0.6045 Q 2.08354833984375 0.6045 2.1112983398437497 0.6120000000000001 Q 2.13904833984375 0.6195 2.16154833984375 0.6375000000000001 Q 2.18404833984375 0.6555 2.20354833984375 0.684 Q 2.22304833984375 0.7125000000000001 2.25004833984375 0.7545000000000001 L 2.36854833984375 0.93 Q 2.39104833984375 0.9645 2.41279833984375 0.9930000000000001 Q 2.43454833984375 1.0215 2.46004833984375 1.04175 Q 2.48554833984375 1.062 2.51779833984375 1.074 Q 2.55004833984375 1.086 2.59504833984375 1.086 Q 2.6280483398437497 1.086 2.64904833984375 1.083 Q 2.67004833984375 1.08 2.69104833984375 1.068 L 2.69104833984375 1.0125 Q 2.6835483398437496 1.014 2.6760483398437502 1.01475 Q 2.66854833984375 1.0155 2.6610483398437497 1.0155 Q 2.62954833984375 1.0155 2.60554833984375 1.0065 Q 2.5815483398437498 0.9975 2.56054833984375 0.9802500000000001 Q 2.53954833984375 0.9630000000000001 2.5200483398437497 0.93825 Q 2.50054833984375 0.9135000000000001 2.47954833984375 0.8820000000000001 Q 2.41654833984375 0.7905 2.3820483398437498 0.7357500000000001 Q 2.3475483398437498 0.681 2.32729833984375 0.651 Q 2.30704833984375 0.621 2.29429833984375 0.6075 Q 2.28154833984375 0.5940000000000001 2.2635483398437497 0.5850000000000001 L 2.24854833984375 0.5775000000000001 L 2.24854833984375 0.5715000000000001 Q 2.32054833984375 0.5670000000000001 2.37229833984375 0.54 Q 2.42404833984375 0.513 2.45704833984375 0.47250000000000003 Q 2.49004833984375 0.43200000000000005 2.50504833984375 0.38475000000000004 Q 2.5200483398437497 0.3375 2.5200483398437497 0.2925000000000001 Q 2.5200483398437497 0.252 2.50429833984375 0.20400000000000007 Q 2.48854833984375 0.15600000000000003 2.4502983398437497 0.11475000000000002 Q 2.41204833984375 0.07350000000000001 2.34604833984375 0.04574999999999996 Q 2.28004833984375 0.018000000000000016 2.17954833984375 0.018000000000000016 L 1.8390483398437498 0.018000000000000016 M 1.97554833984375 0.08400000000000007 L 2.12704833984375 0.08400000000000007 Q 2.18404833984375 0.08400000000000007 2.2297983398437498 0.10050000000000003 Q 2.27554833984375 0.11699999999999999 2.3085483398437496 0.14625 Q 2.34154833984375 0.1755 2.3587983398437498 0.21600000000000008 Q 2.37604833984375 0.25650000000000006 2.37604833984375 0.3045 Q 2.37604833984375 0.3450000000000001 2.36029833984375 0.3862500000000001 Q 2.34454833984375 0.4275000000000001 2.31304833984375 0.46125000000000005 Q 2.28154833984375 0.495 2.23579833984375 0.516 Q 2.19004833984375 0.537 2.13004833984375 0.537 L 1.97554833984375 0.537 L 1.97554833984375 0.08400000000000007 M 2.91457470703125 0.018000000000000016 L 2.91457470703125 1.068 L 3.59257470703125 1.068 L 3.59257470703125 0.9855 L 3.05107470703125 0.9855 L 3.05107470703125 0.546 L 3.5160747070312497 0.546 L 3.5160747070312497 0.4770000000000001 L 3.05107470703125 0.4770000000000001 L 3.05107470703125 0.10050000000000003 L 3.59257470703125 0.10050000000000003 L 3.59257470703125 0.018000000000000016 L 2.91457470703125 0.018000000000000016 M 3.816059326171875 1.068 L 3.816059326171875 0.018000000000000016 L 3.9525593261718748 0.018000000000000016 L 3.9525593261718748 0.9855 L 4.494059326171874 0.9855 L 4.494059326171874 1.068 L 3.816059326171875 1.068 M 4.717543945312499 1.068 L 4.717543945312499 0.018000000000000016 L 4.854043945312499 0.018000000000000016 L 4.854043945312499 0.9855 L 5.395543945312499 0.9855 L 5.395543945312499 1.068 L 4.717543945312499 1.068 M 5.619028564453124 0.018000000000000016 L 5.619028564453124 1.068 L 6.297028564453124 1.068 L 6.297028564453124 0.9855 L 5.755528564453124 0.9855 L 5.755528564453124 0.546 L 6.220528564453125 0.546 L 6.220528564453125 0.4770000000000001 L 5.755528564453124 0.4770000000000001 L 5.755528564453124 0.10050000000000003 L 6.297028564453124 0.10050000000000003 L 6.297028564453124 0.018000000000000016 L 5.619028564453124 0.018000000000000016 M 7.10401318359375 0.7590000000000001 L 7.248013183593749 1.068 L 7.3935131835937495 1.068 L 6.90451318359375 0.018000000000000016 L 6.8295131835937495 0.018000000000000016 L 6.3855131835937495 1.068 L 6.4545131835937495 1.068 L 6.58651318359375 0.7590000000000001 L 7.10401318359375 0.7590000000000001 M 7.07251318359375 0.6915 L 6.615013183593749 0.6915 L 6.8310131835937495 0.18600000000000005 L 6.83701318359375 0.18600000000000005 L 7.07251318359375 0.6915 M 8.426968505859374 0.018000000000000016 L 8.426968505859374 0.7755000000000001 Q 8.426968505859374 0.8115000000000001 8.424718505859374 0.8542500000000001 Q 8.422468505859374 0.897 8.407468505859374 0.9337500000000001 Q 8.392468505859375 0.9705 8.361718505859374 0.9952500000000001 Q 8.330968505859374 1.02 8.273968505859374 1.02 Q 8.224468505859374 1.02 8.192218505859374 1.002 Q 8.159968505859375 0.9840000000000001 8.141218505859374 0.9570000000000001 Q 8.122468505859375 0.93 8.114218505859375 0.8992500000000001 Q 8.105968505859375 0.8685 8.105968505859375 0.8445 L 7.975468505859374 0.8445 Q 7.978468505859374 0.9600000000000001 8.050468505859374 1.0230000000000001 Q 8.122468505859375 1.086 8.266468505859374 1.086 Q 8.369968505859374 1.086 8.429968505859375 1.05525 Q 8.489968505859375 1.0245 8.519218505859374 0.9772500000000001 Q 8.548468505859374 0.93 8.555968505859374 0.8745 Q 8.563468505859374 0.8190000000000001 8.563468505859374 0.7710000000000001 L 8.563468505859374 0.018000000000000016 L 8.426968505859374 0.018000000000000016 M 8.921927490234374 0.018000000000000016 L 8.921927490234374 1.068 L 9.599927490234375 1.068 L 9.599927490234375 0.9855 L 9.058427490234374 0.9855 L 9.058427490234374 0.546 L 9.523427490234374 0.546 L 9.523427490234374 0.4770000000000001 L 9.058427490234374 0.4770000000000001 L 9.058427490234374 0.10050000000000003 L 9.599927490234375 0.10050000000000003 L 9.599927490234375 0.018000000000000016 L 8.921927490234374 0.018000000000000016 M 9.688412109375 0.018000000000000016 L 10.060412109375 1.068 L 10.150412109374999 1.068 L 10.436912109375 0.24750000000000005 L 10.444412109375 0.24750000000000005 L 10.721912109375 1.068 L 10.810412109375 1.068 L 11.182412109374999 0.018000000000000016 L 11.113412109375 0.018000000000000016 L 10.802912109374999 0.894 L 10.796912109374999 0.894 L 10.504412109375 0.018000000000000016 L 10.439912109375 0.018000000000000016 L 10.141412109374999 0.8895000000000001 L 10.135412109375 0.8895000000000001 L 9.826412109375 0.018000000000000016 L 9.688412109375 0.018000000000000016 M 11.405865966796874 0.018000000000000016 L 11.405865966796874 1.068 L 12.083865966796875 1.068 L 12.083865966796875 0.9855 L 11.542365966796874 0.9855 L 11.542365966796874 0.546 L 12.007365966796874 0.546 L 12.007365966796874 0.4770000000000001 L 11.542365966796874 0.4770000000000001 L 11.542365966796874 0.10050000000000003 L 12.083865966796875 0.10050000000000003 L 12.083865966796875 0.018000000000000016 L 11.405865966796874 0.018000000000000016 M 12.307350585937499 1.068 L 12.307350585937499 0.018000000000000016 L 12.443850585937499 0.018000000000000016 L 12.443850585937499 0.9855 L 12.9853505859375 0.9855 L 12.9853505859375 1.068 L 12.307350585937499 1.068 M 13.084335205078125 0.8025 Q 13.087335205078125 0.867 13.118085205078124 0.9195000000000001 Q 13.148835205078123 0.9720000000000001 13.202085205078124 1.00875 Q 13.255335205078124 1.0455 13.327335205078125 1.06575 Q 13.399335205078124 1.086 13.484835205078124 1.086 Q 13.571835205078123 1.086 13.641585205078124 1.0650000000000002 Q 13.711335205078123 1.044 13.760835205078124 1.0050000000000001 Q 13.810335205078124 0.9660000000000001 13.837335205078125 0.9105000000000001 Q 13.864335205078124 0.8550000000000001 13.864335205078124 0.7875000000000001 Q 13.864335205078124 0.6945000000000001 13.817835205078124 0.6352500000000001 Q 13.771335205078124 0.5760000000000001 13.701585205078125 0.53625 Q 13.631835205078124 0.49650000000000005 13.550085205078124 0.46950000000000003 Q 13.468335205078125 0.4425 13.398585205078124 0.4125000000000001 Q 13.328835205078125 0.38250000000000006 13.282335205078125 0.3435 Q 13.235835205078125 0.3045 13.235835205078125 0.24 Q 13.235835205078125 0.20400000000000007 13.251585205078124 0.1725 Q 13.267335205078124 0.14100000000000001 13.298085205078124 0.11775000000000002 Q 13.328835205078125 0.09450000000000003 13.373835205078125 0.08025000000000004 Q 13.418835205078125 0.06600000000000006 13.477335205078123 0.06600000000000006 Q 13.574835205078124 0.06600000000000006 13.643085205078124 0.10725000000000007 Q 13.711335205078123 0.14850000000000008 13.723335205078124 0.237 L 13.825335205078124 0.237 Q 13.816335205078124 0.1815 13.784835205078124 0.1372500000000001 Q 13.753335205078125 0.09300000000000008 13.705335205078125 0.06225000000000014 Q 13.657335205078125 0.031500000000000083 13.596585205078124 0.01574999999999993 Q 13.535835205078124 0 13.469835205078125 0 Q 13.400835205078124 0 13.338585205078124 0.018000000000000016 Q 13.276335205078125 0.03600000000000003 13.229085205078125 0.07050000000000001 Q 13.181835205078125 0.1050000000000001 13.154085205078124 0.15750000000000008 Q 13.126335205078124 0.21000000000000008 13.126335205078124 0.2775000000000001 Q 13.126335205078124 0.366 13.171335205078124 0.42000000000000004 Q 13.216335205078124 0.4740000000000001 13.284585205078125 0.51 Q 13.352835205078124 0.546 13.432335205078124 0.5715000000000001 Q 13.511835205078125 0.597 13.580085205078124 0.6292500000000001 Q 13.648335205078125 0.6615 13.693335205078125 0.7080000000000001 Q 13.738335205078124 0.7545000000000001 13.738335205078124 0.8325 Q 13.738335205078124 0.93 13.667085205078124 0.9750000000000001 Q 13.595835205078124 1.02 13.477335205078123 1.02 Q 13.382835205078123 1.02 13.325835205078125 0.9952500000000001 Q 13.268835205078124 0.9705 13.238835205078125 0.936 Q 13.208835205078124 0.9015000000000001 13.198335205078124 0.86475 Q 13.187835205078125 0.8280000000000001 13.186335205078125 0.8025 L 13.084335205078125 0.8025" fill="#ffffff" fill-rule="nonzero"></path></g><g></g></g><defs><clipPath id="SvgjsClipPath110124"><path d=" M 14.366335205078126 -0.5861278498457219 h 2.240255699691444 v 2.240255699691444 h -2.240255699691444 Z"></path></clipPath><clipPath id="SvgjsClipPath1101196325cf0f-adb0-4020-929f-52f0bda7b9b7"><path d=" M 14.366335205078126 -0.5861278498457219 L 16.60659090476957 -0.5861278498457219 L 16.60659090476957 1.654127849845722 L 14.366335205078126 1.654127849845722 Z"></path></clipPath></defs></svg>